<svg xmlns="http://www.w3.org/2000/svg" width="64" height="64" viewBox="0 0 64 64" fill="none"><path d="M9.197 12.47A10.944 10.944 0 0 0 3.648 21.99v20.141c0 3.936 2.128 7.584 5.552 9.523l13.206 7.472 7.165 4.058v-17.078l-2.438 -1.376 -8.624 -4.883V24.272L27.133 19.392l2.438 -1.376V0.938L22.4 4.992zm15.574 2.746L14.154 21.222a0.896 0.896 0 0 0 -0.448 0.768v20.144c0 0.32 0.173 0.608 0.448 0.768l10.618 6.006v6.042l-13.206 -7.475c-1.923 -1.088 -3.117 -3.133 -3.117 -5.344V21.994c0 -2.208 1.194 -4.256 3.117 -5.344L24.768 9.174zm35.571 6.774v20.141c0 3.936 -2.128 7.584 -5.555 9.523l-13.203 7.472 -7.168 4.058v-17.078l2.438 -1.376 8.627 -4.883v-2.829h4.8v5.114c0 0.32 -0.17 0.608 -0.448 0.768l-10.614 6.006v6.042l13.206 -7.472c1.92 -1.088 3.114 -3.136 3.114 -5.344V21.99c0 -2.208 -1.194 -4.256 -3.114 -5.344l-13.206 -7.475v6.042l10.614 6.01c0.278 0.154 0.448 0.448 0.448 0.768V27.104h-4.8v-2.829L36.854 19.392l-2.435 -1.376V0.934l7.165 4.054 13.203 7.478a10.976 10.976 0 0 1 5.552 9.52" fill="#21D192"/></svg>