<svg width="56" height="65" viewBox="0 0 56 65" fill="none" xmlns="http://www.w3.org/2000/svg">
<path d="M2.78804 47.7465L5.0979 49.1123L30.8307 3.46905L28.5208 2.10327L2.78804 47.7465Z" fill="#E535AB"/>
<path d="M53.7248 44.0999H2.25916V46.8314H53.7248V44.0999Z" fill="#E535AB"/>
<path d="M3.27758 45.6345L29.02 60.8555L30.3537 58.4899L4.61121 43.2689L3.27758 45.6345Z" fill="#E535AB"/>
<path d="M25.64 5.96405L51.3824 21.1851L52.7161 18.8195L26.9736 3.59852L25.64 5.96405Z" fill="#E535AB"/>
<path d="M3.28465 18.8098L4.61829 21.1753L30.3607 5.95428L29.0271 3.58876L3.28465 18.8098Z" fill="#E535AB"/>
<path d="M25.1749 3.46906L50.9077 49.1123L53.2176 47.7465L27.4848 2.10328L25.1749 3.46906Z" fill="#E535AB"/>
<path d="M6.96708 16.9985H4.2998V47.4406H6.96708V16.9985Z" fill="#E535AB"/>
<path d="M51.7002 16.9985H49.033V47.4406H51.7002V16.9985Z" fill="#E535AB"/>
<path d="M27.401 57.6327L28.5659 59.699L50.9549 46.4608L49.79 44.3945L27.401 57.6327Z" fill="#E535AB"/>
<path d="M55.2351 48.3286C53.6926 51.0766 50.2541 52.0145 47.5707 50.4348C44.8874 48.8551 43.9715 45.3337 45.514 42.5857C47.0566 39.8377 50.4951 38.8998 53.1784 40.4795C55.8779 42.0756 56.7937 45.5806 55.2351 48.3286Z" fill="#E535AB"/>
<path d="M10.4699 21.8525C8.92736 24.6005 5.48882 25.5385 2.80547 23.9588C0.122127 22.3791 -0.793745 18.8577 0.748777 16.1097C2.2913 13.3616 5.72984 12.4237 8.41318 14.0034C11.0965 15.5995 12.0124 19.1045 10.4699 21.8525Z" fill="#E535AB"/>
<path d="M0.764768 48.3286C-0.777754 45.5806 0.138118 42.0756 2.82146 40.4795C5.50481 38.8998 8.92728 39.8377 10.4859 42.5857C12.0284 45.3337 11.1125 48.8387 8.42917 50.4348C5.72976 52.0145 2.30729 51.0766 0.764768 48.3286Z" fill="#E535AB"/>
<path d="M45.5301 21.8525C43.9876 19.1045 44.9035 15.5995 47.5868 14.0034C50.2702 12.4237 53.6927 13.3616 55.2513 16.1097C56.7938 18.8577 55.8779 22.3626 53.1946 23.9588C50.5112 25.5385 47.0727 24.6005 45.5301 21.8525Z" fill="#E535AB"/>
<path d="M28 64.4386C24.8989 64.4386 22.3923 61.8716 22.3923 58.6957C22.3923 55.5199 24.8989 52.9529 28 52.9529C31.1012 52.9529 33.6078 55.5199 33.6078 58.6957C33.6078 61.8551 31.1012 64.4386 28 64.4386Z" fill="#E535AB"/>
<path d="M28 11.4857C24.8989 11.4857 22.3923 8.91869 22.3923 5.74285C22.3923 2.567 24.8989 0 28 0C31.1012 0 33.6078 2.567 33.6078 5.74285C33.6078 8.91869 31.1012 11.4857 28 11.4857Z" fill="#E535AB"/>
</svg>
