<svg width="525" height="294" viewBox="0 0 525 294" fill="none" xmlns="http://www.w3.org/2000/svg">
<g clip-path="url(#clip0_35_153)">
<g filter="url(#filter0_d_35_153)">
<g clip-path="url(#clip1_35_153)">
<rect x="316.174" y="40" width="208.326" height="199.899" fill="url(#paint0_linear_35_153)"/>
<rect x="316.408" y="40.2341" width="207.858" height="19.9205" fill="#051419"/>
<rect x="316.408" y="40.2341" width="207.858" height="19.9205" stroke="url(#paint1_radial_35_153)" stroke-width="0.468148"/>
<path fill-rule="evenodd" clip-rule="evenodd" d="M339.63 50.1943C339.63 51.9462 338.209 53.3665 336.458 53.3665C334.706 53.3665 333.285 51.9462 333.285 50.1943C333.285 48.4424 334.706 47.0222 336.458 47.0222C338.209 47.0222 339.63 48.4424 339.63 50.1943ZM329.54 50.1946C329.54 51.9465 328.12 53.3667 326.368 53.3667C324.616 53.3667 323.196 51.9465 323.196 50.1946C323.196 48.4427 324.616 47.0225 326.368 47.0225C328.12 47.0225 329.54 48.4427 329.54 50.1946ZM346.547 53.3665C348.299 53.3665 349.719 51.9462 349.719 50.1943C349.719 48.4424 348.299 47.0222 346.547 47.0222C344.795 47.0222 343.375 48.4424 343.375 50.1943C343.375 51.9462 344.795 53.3665 346.547 53.3665Z" fill="url(#paint2_linear_35_153)"/>
<g clip-path="url(#clip2_35_153)">
<path d="M459.572 178.421L442.703 161.556C448.145 154.768 450.044 147.385 450.031 138.685C450.031 117.518 432.852 100.339 411.685 100.339C390.518 100.339 373.339 117.518 373.339 138.685C373.339 159.852 390.518 177.031 411.685 177.031C420.385 177.044 427.556 175.357 434.344 169.915L451.209 186.784L459.572 178.421Z" stroke="white" stroke-width="0.5" stroke-dasharray="1 1"/>
<path d="M437.4 161.25L454 178L451.007 181L434.2 164.4C427.5 170 419.98 172.7 412 172.7C391.5 172.7 378.5 155.5 378.5 139.175C378.5 119 395 105.5 412.095 105.5C429.19 105.5 445.5 119 445.709 139.175C445.795 147.5 442 156 437.4 161.25ZM432.5 160C435.493 157.007 441.188 149.5 441.188 139.175C441.188 121.622 427 110 412.095 110C396.5 110 383.397 121.5 383 139.175C382.603 156.85 398.405 168.2 412 168.2C419.905 168.2 428.01 164.49 432.5 160Z" stroke="url(#paint3_linear_35_153)" stroke-width="3.34961"/>
</g>
</g>
<rect x="316.408" y="40.2341" width="207.858" height="199.431" stroke="url(#paint4_radial_35_153)" stroke-width="0.468148"/>
</g>
<line x1="17.9473" y1="53.5596" x2="17.9473" y2="249.464" stroke="white"/>
<path d="M30.7871 68.3363V39.4512L37.9241 32.318V61.2031L30.7871 68.3363Z" fill="#051419" stroke="#A9A8A8"/>
<path d="M1.19081 38.9062L8.34695 31.6113H37.245L30.0889 38.9062H1.19081Z" fill="#051419" stroke="#B9B9B9"/>
<path d="M30.7871 116.768V87.8829L37.9241 80.7496V109.635L30.7871 116.768Z" fill="#051419" stroke="#A9A8A8"/>
<path d="M1.19081 87.3378L8.34695 80.043H37.245L30.0889 87.3378H1.19081Z" fill="#051419" stroke="#B9B9B9"/>
<path d="M30.7871 165.2V136.315L37.9241 129.181V158.066L30.7871 165.2Z" fill="#051419" stroke="#A9A8A8"/>
<path d="M1.19081 135.769L8.34695 128.475H37.245L30.0889 135.769H1.19081Z" fill="#051419" stroke="#B9B9B9"/>
<path d="M30.7871 213.631V184.746L37.9241 177.613V206.498L30.7871 213.631Z" fill="#051419" stroke="#A9A8A8"/>
<path d="M1.19081 184.201L8.34695 176.906H37.245L30.0889 184.201H1.19081Z" fill="#051419" stroke="#B9B9B9"/>
<path d="M30.7871 262.063V233.178L37.9241 226.045V254.93L30.7871 262.063Z" fill="#051419" stroke="#A9A8A8"/>
<path d="M1.19081 232.633L8.34695 225.338H37.245L30.0889 232.633H1.19081Z" fill="#051419" stroke="#B9B9B9"/>
<path fill-rule="evenodd" clip-rule="evenodd" d="M0.0693359 39.1748H30.3682V69.4737H0.0693359V39.1748ZM0.0693359 87.6064H30.3682V117.905H0.0693359V87.6064ZM30.3682 136.038H0.0693359V166.337H30.3682V136.038ZM0.0693359 184.47H30.3682V214.769H0.0693359V184.47ZM30.3682 232.901H0.0693359V263.2H30.3682V232.901Z" fill="url(#paint5_radial_35_153)"/>
<path d="M215.148 144.011C222.376 140.397 227.822 135.736 230.413 130.413V142.125C230.413 149.403 224.49 156.217 214.399 161.263C204.358 166.283 190.429 169.413 175 169.413C159.571 169.413 145.642 166.283 135.601 161.263C125.51 156.217 119.587 149.403 119.587 142.125V130.413C122.178 135.736 127.624 140.397 134.852 144.011C145.171 149.17 159.367 152.337 175 152.337C190.633 152.337 204.829 149.17 215.148 144.011ZM119.587 161.663C122.178 166.985 127.624 171.647 134.852 175.261C145.171 180.42 159.367 183.587 175 183.587C190.633 183.587 204.829 180.42 215.148 175.261C222.376 171.647 227.822 166.985 230.413 161.663V173.375C230.413 180.653 224.49 187.467 214.399 192.513C204.358 197.533 190.429 200.663 175 200.663C159.571 200.663 145.642 197.533 135.601 192.513C125.51 187.467 119.587 180.653 119.587 173.375V161.663ZM175 138.163C159.571 138.163 145.642 135.033 135.601 130.013C125.51 124.967 119.587 118.153 119.587 110.875C119.587 103.597 125.51 96.7827 135.601 91.7373C145.642 86.717 159.571 83.5874 175 83.5874C190.429 83.5874 204.358 86.717 214.399 91.7373C224.49 96.7827 230.413 103.597 230.413 110.875C230.413 118.153 224.49 124.967 214.399 130.013C204.358 135.033 190.429 138.163 175 138.163Z" fill="url(#paint6_radial_35_153)" stroke="#E5E5E0" stroke-width="1.6748"/>
<circle cx="175" cy="142" r="85" stroke="#E5E5E0" stroke-width="1.6748" stroke-dasharray="5.02 5.02"/>
<path d="M44.5889 191.003H77.7148C83.5117 191.003 88.7721 194.199 92.0586 198.974C110.2 225.333 140.581 242.614 174.999 242.614C209.417 242.614 239.798 225.333 257.94 198.974C261.226 194.199 266.487 191.003 272.283 191.003H308.198M308.198 191.003L302.489 185.295M308.198 191.003L302.489 196.711" stroke="#E5E5E0" stroke-width="0.5"/>
<path d="M44.5889 99.96H73.3144C79.5601 99.96 85.1382 96.2641 88.3156 90.887C105.824 61.2578 138.091 41.3848 174.999 41.3848C211.907 41.3848 244.174 61.2578 261.683 90.887C264.86 96.2641 270.438 99.96 276.684 99.96H308.198M308.198 99.96L302.39 94.1521M308.198 99.96L302.39 105.768" stroke="#E5E5E0" stroke-width="0.5"/>
<path d="M46.3447 142.718H79.9326M79.9326 142.718L73.913 136.698M79.9326 142.718L73.913 148.737" stroke="white"/>
<path d="M273.4 142.718H306.988M306.988 142.718L300.969 136.698M306.988 142.718L300.969 148.737" stroke="white"/>
</g>
<defs>
<filter id="filter0_d_35_153" x="314.301" y="40" width="212.071" height="203.645" filterUnits="userSpaceOnUse" color-interpolation-filters="sRGB">
<feFlood flood-opacity="0" result="BackgroundImageFix"/>
<feColorMatrix in="SourceAlpha" type="matrix" values="0 0 0 0 0 0 0 0 0 0 0 0 0 0 0 0 0 0 127 0" result="hardAlpha"/>
<feOffset dy="1.87259"/>
<feGaussianBlur stdDeviation="0.936297"/>
<feComposite in2="hardAlpha" operator="out"/>
<feColorMatrix type="matrix" values="0 0 0 0 0 0 0 0 0 0 0 0 0 0 0 0 0 0 0.25 0"/>
<feBlend mode="normal" in2="BackgroundImageFix" result="effect1_dropShadow_35_153"/>
<feBlend mode="normal" in="SourceGraphic" in2="effect1_dropShadow_35_153" result="shape"/>
</filter>
<linearGradient id="paint0_linear_35_153" x1="420.337" y1="293.657" x2="420.337" y2="40" gradientUnits="userSpaceOnUse">
<stop stop-color="#051419"/>
<stop offset="1" stop-color="#0D262E"/>
</linearGradient>
<radialGradient id="paint1_radial_35_153" cx="0" cy="0" r="1" gradientUnits="userSpaceOnUse" gradientTransform="translate(315.706 83.6793) rotate(-16.162) scale(257.386 522.988)">
<stop stop-color="#C97E64"/>
<stop offset="0.114583" stop-color="#D8A679"/>
<stop offset="0.333333" stop-color="#97D9D7"/>
<stop offset="1" stop-color="#E99E52"/>
</radialGradient>
<linearGradient id="paint2_linear_35_153" x1="336.458" y1="53.3665" x2="336.458" y2="47.0223" gradientUnits="userSpaceOnUse">
<stop stop-color="#78D5E2"/>
<stop offset="0.0926214" stop-color="#88D2CD"/>
<stop offset="0.2402" stop-color="#9DCEB1"/>
<stop offset="0.3254" stop-color="#A5CDA6"/>
<stop offset="0.5032" stop-color="#AEBD9A"/>
<stop offset="0.8469" stop-color="#C6957C"/>
<stop offset="0.9994" stop-color="#D2816D"/>
</linearGradient>
<linearGradient id="paint3_linear_35_153" x1="416.699" y1="183.391" x2="416.71" y2="104.009" gradientUnits="userSpaceOnUse">
<stop stop-color="#78D5E2"/>
<stop offset="0.0926214" stop-color="#88D2CD"/>
<stop offset="0.2402" stop-color="#9DCEB1"/>
<stop offset="0.3254" stop-color="#A5CDA6"/>
<stop offset="0.5032" stop-color="#AEBD9A"/>
<stop offset="0.8469" stop-color="#C6957C"/>
<stop offset="0.9994" stop-color="#D2816D"/>
</linearGradient>
<radialGradient id="paint4_radial_35_153" cx="0" cy="0" r="1" gradientUnits="userSpaceOnUse" gradientTransform="translate(315.706 468.25) rotate(-70.6111) scale(744.666 1772.3)">
<stop stop-color="#C97E64"/>
<stop offset="0.114583" stop-color="#D8A679"/>
<stop offset="0.333333" stop-color="#97D9D7"/>
<stop offset="1" stop-color="#E99E52"/>
</radialGradient>
<radialGradient id="paint5_radial_35_153" cx="0" cy="0" r="1" gradientUnits="userSpaceOnUse" gradientTransform="translate(-40.982 254.681) rotate(-65.6182) scale(258.295 196.317)">
<stop offset="0.00059998" stop-color="#D2816D"/>
<stop offset="0.1531" stop-color="#C6957C"/>
<stop offset="0.4968" stop-color="#AEBD9A"/>
<stop offset="0.6746" stop-color="#A5CDA6"/>
<stop offset="0.7598" stop-color="#9DCEB1"/>
<stop offset="0.907379" stop-color="#88D2CD"/>
<stop offset="1" stop-color="#78D5E2"/>
</radialGradient>
<radialGradient id="paint6_radial_35_153" cx="0" cy="0" r="1" gradientUnits="userSpaceOnUse" gradientTransform="translate(151.859 186.73) rotate(-36.5289) scale(141.727 89.4928)">
<stop stop-color="#78D5E2"/>
<stop offset="0.11" stop-color="#79D2DD"/>
<stop offset="0.23" stop-color="#7FCBCE"/>
<stop offset="0.37" stop-color="#87BFB6"/>
<stop offset="0.51" stop-color="#94AF95"/>
<stop offset="0.66" stop-color="#A49A6A"/>
<stop offset="0.81" stop-color="#B78137"/>
<stop offset="0.82" stop-color="#B97F33"/>
<stop offset="0.86" stop-color="#BB7E36"/>
<stop offset="0.89" stop-color="#C17C41"/>
<stop offset="0.93" stop-color="#CB7854"/>
<stop offset="0.96" stop-color="#DA736E"/>
<stop offset="1" stop-color="#EF6D94"/>
</radialGradient>
<clipPath id="clip0_35_153">
<rect width="524.5" height="294" fill="white"/>
</clipPath>
<clipPath id="clip1_35_153">
<rect x="316.174" y="40" width="208.326" height="199.899" fill="white"/>
</clipPath>
<clipPath id="clip2_35_153">
<rect width="94" height="94" fill="white" transform="translate(368 96)"/>
</clipPath>
</defs>
</svg>
