<svg width="525" height="294" viewBox="0 0 525 294" fill="none" xmlns="http://www.w3.org/2000/svg">
<g clip-path="url(#clip0_355_20022)">
<path d="M389.79 68.336C389.045 68.2878 388.299 68.2443 387.549 68.2153" stroke="#00141B" stroke-width="1.08897" stroke-miterlimit="10"/>
<g filter="url(#filter0_d_355_20022)">
<g clip-path="url(#clip1_355_20022)">
<rect x="0.5" y="40" width="208.326" height="199.899" fill="url(#paint0_linear_355_20022)"/>
<rect x="0.734074" y="40.2341" width="207.858" height="19.9205" fill="#051419"/>
<rect x="0.734074" y="40.2341" width="207.858" height="19.9205" stroke="url(#paint1_radial_355_20022)" stroke-width="0.468148"/>
<path fill-rule="evenodd" clip-rule="evenodd" d="M23.9557 50.1943C23.9557 51.9462 22.5355 53.3665 20.7836 53.3665C19.0317 53.3665 17.6114 51.9462 17.6114 50.1943C17.6114 48.4424 19.0317 47.0222 20.7836 47.0222C22.5355 47.0222 23.9557 48.4424 23.9557 50.1943ZM13.8665 50.1946C13.8665 51.9465 12.4462 53.3667 10.6943 53.3667C8.94242 53.3667 7.52222 51.9465 7.52222 50.1946C7.52222 48.4427 8.94242 47.0225 10.6943 47.0225C12.4462 47.0225 13.8665 48.4427 13.8665 50.1946ZM30.873 53.3665C32.6249 53.3665 34.0451 51.9462 34.0451 50.1943C34.0451 48.4424 32.6249 47.0222 30.873 47.0222C29.1211 47.0222 27.7009 48.4424 27.7009 50.1943C27.7009 51.9462 29.1211 53.3665 30.873 53.3665Z" fill="url(#paint2_linear_355_20022)"/>
<path fill-rule="evenodd" clip-rule="evenodd" d="M102 136C107.79 136 112.578 140.488 112.974 146.235L112.957 146.3L112.937 146.349C112.602 147.247 111.424 148.078 109.744 148.72L108.046 147.191C109.492 146.785 110.546 146.29 110.929 145.86C110.512 142.56 108.314 139.833 105.346 138.643C106.314 140.512 106.904 143.216 106.989 146.239L104.844 144.309C104.421 140.728 103.209 138.138 102.09 138.005L102 138C100.594 138 99 141.984 99 147C99 147.287 99.0052 147.571 99.0153 147.851C99.954 147.948 100.956 148 102 148V150C101.021 150 100.076 149.958 99.1791 149.877C99.6333 153.457 100.876 156 102 156V158C95.9249 158 91 153.075 91 147C91 140.925 95.9249 136 102 136ZM93.1185 148.464L93.1043 148.366C94.1474 148.91 95.5235 149.332 97.1291 149.611C97.3592 151.878 97.8888 153.88 98.655 155.358C95.7769 154.205 93.6329 151.608 93.1185 148.464ZM98.4968 138.707L98.6549 138.642C97.6057 140.667 97 143.672 97 147L97.0047 147.55C96.4311 147.436 95.8964 147.301 95.4083 147.148C94.1672 146.758 93.3564 146.28 93.0657 145.907C93.4594 142.655 95.5872 139.938 98.4968 138.707Z" fill="black"/>
<path fill-rule="evenodd" clip-rule="evenodd" d="M104 157.414V146.255L112.606 154L108.7 154L110.374 157.014L108.626 157.986L106.769 154.645L104 157.414ZM106 150.744V152.585L106.586 152H107.395L106 150.744Z" fill="black"/>
</g>
<rect x="0.734074" y="40.2341" width="207.858" height="199.431" stroke="url(#paint3_radial_355_20022)" stroke-width="0.468148"/>
</g>
<g filter="url(#filter1_d_355_20022)">
<g clip-path="url(#clip2_355_20022)">
<rect x="0.5" y="40" width="208.326" height="199.899" fill="url(#paint4_linear_355_20022)"/>
<rect x="0.734074" y="40.2341" width="207.858" height="19.9205" fill="#051419"/>
<rect x="0.734074" y="40.2341" width="207.858" height="19.9205" stroke="url(#paint5_radial_355_20022)" stroke-width="0.468148"/>
<path fill-rule="evenodd" clip-rule="evenodd" d="M23.9557 50.1943C23.9557 51.9462 22.5355 53.3665 20.7836 53.3665C19.0317 53.3665 17.6114 51.9462 17.6114 50.1943C17.6114 48.4424 19.0317 47.0222 20.7836 47.0222C22.5355 47.0222 23.9557 48.4424 23.9557 50.1943ZM13.8665 50.1946C13.8665 51.9465 12.4462 53.3667 10.6943 53.3667C8.94242 53.3667 7.52222 51.9465 7.52222 50.1946C7.52222 48.4427 8.94242 47.0225 10.6943 47.0225C12.4462 47.0225 13.8665 48.4427 13.8665 50.1946ZM30.873 53.3665C32.6249 53.3665 34.0451 51.9462 34.0451 50.1943C34.0451 48.4424 32.6249 47.0222 30.873 47.0222C29.1211 47.0222 27.7009 48.4424 27.7009 50.1943C27.7009 51.9462 29.1211 53.3665 30.873 53.3665Z" fill="url(#paint6_linear_355_20022)"/>
</g>
<rect x="0.734074" y="40.2341" width="207.858" height="199.431" stroke="url(#paint7_radial_355_20022)" stroke-width="0.468148"/>
</g>
<circle cx="311.324" cy="147.01" r="64.1581" fill="#051419" stroke="#E5E5E0"/>
<circle cx="311.324" cy="147.01" r="54.5459" fill="url(#paint8_linear_355_20022)"/>
<path d="M299.203 83.3757V68.2211C255.689 68.2211 220.414 103.496 220.414 147.01C220.414 190.523 255.689 225.798 299.203 225.798V210.65" stroke="#E5E5E0" stroke-dasharray="7.77 7.77"/>
<path d="M323.445 83.3757V68.2211C366.959 68.2211 402.234 103.496 402.234 147.01C402.234 190.523 366.959 225.798 323.445 225.798V210.65" stroke="#E5E5E0" stroke-dasharray="7.77 7.77"/>
<path d="M402.233 147.009H380.455M380.455 147.009L390.134 134.888M380.455 147.009L390.134 159.131" stroke="#E5E5E0"/>
<path d="M220.415 147.009H242.184M242.184 147.009L232.509 134.888M242.184 147.009L232.509 159.131" stroke="#E5E5E0"/>
<path d="M276.505 140.264C276.505 138.736 276.887 137.411 277.651 136.291C278.415 135.145 279.484 134.253 280.86 133.617C282.235 132.98 283.839 132.662 285.673 132.662C287.328 132.662 288.767 132.955 289.99 133.54C291.237 134.126 292.231 134.966 292.969 136.062C293.708 137.157 294.141 138.468 294.268 139.996H291.479C291.327 138.468 290.741 137.284 289.722 136.444C288.703 135.578 287.341 135.145 285.635 135.145C283.725 135.145 282.184 135.603 281.012 136.52C279.841 137.437 279.255 138.672 279.255 140.225C279.255 141.422 279.612 142.416 280.325 143.205C281.038 143.969 282.108 144.529 283.534 144.886L288.232 146.032C290.372 146.541 291.989 147.407 293.084 148.629C294.179 149.826 294.726 151.354 294.726 153.214C294.726 154.767 294.344 156.129 293.58 157.301C292.816 158.472 291.734 159.376 290.333 160.013C288.933 160.65 287.29 160.968 285.405 160.968C283.648 160.968 282.082 160.675 280.707 160.09C279.357 159.504 278.287 158.663 277.498 157.568C276.734 156.473 276.288 155.187 276.161 153.71H278.988C279.064 155.162 279.688 156.32 280.86 157.186C282.031 158.027 283.546 158.447 285.405 158.447C287.417 158.447 289.009 157.989 290.181 157.072C291.377 156.155 291.976 154.92 291.976 153.366C291.976 152.118 291.619 151.112 290.906 150.348C290.219 149.559 289.136 148.986 287.659 148.629L283.037 147.483C280.898 146.974 279.268 146.121 278.147 144.924C277.052 143.702 276.505 142.148 276.505 140.264ZM308 160.51H299.672V133.158H307.924C310.674 133.158 313.081 133.731 315.144 134.877C317.206 136.023 318.811 137.628 319.957 139.691C321.103 141.728 321.676 144.109 321.676 146.834C321.676 149.559 321.103 151.953 319.957 154.016C318.836 156.053 317.245 157.645 315.182 158.791C313.144 159.937 310.75 160.51 308 160.51ZM302.423 134.457V159.211L301.162 157.989H307.885C310.127 157.989 312.062 157.53 313.692 156.613C315.322 155.697 316.582 154.41 317.474 152.755C318.391 151.074 318.849 149.101 318.849 146.834C318.849 144.567 318.391 142.594 317.474 140.913C316.582 139.232 315.309 137.946 313.654 137.055C312.024 136.138 310.076 135.68 307.809 135.68H301.162L302.423 134.457ZM345.859 133.158L328.936 154.283V150.196L342.573 133.158H345.859ZM329.394 133.158V160.51H326.644V133.158H329.394ZM334.59 146.719L336.423 144.466L346.011 160.51H342.803L334.59 146.719Z" fill="white"/>
<path d="M448.546 93.9125C448.742 93.7173 448.742 93.4007 448.546 93.2054L445.364 90.0234C445.169 89.8282 444.853 89.8282 444.657 90.0234C444.462 90.2187 444.462 90.5353 444.657 90.7305L447.486 93.559L444.657 96.3874C444.462 96.5826 444.462 96.8992 444.657 97.0945C444.853 97.2898 445.169 97.2898 445.364 97.0945L448.546 93.9125ZM386.427 94.059H448.193V93.059H386.427V94.059Z" fill="#E5E5E0"/>
<path d="M365.311 93.2054C365.115 93.4007 365.115 93.7173 365.311 93.9125L368.493 97.0945C368.688 97.2898 369.005 97.2898 369.2 97.0945C369.395 96.8992 369.395 96.5826 369.2 96.3874L366.371 93.559L369.2 90.7305C369.395 90.5353 369.395 90.2187 369.2 90.0234C369.005 89.8282 368.688 89.8282 368.493 90.0234L365.311 93.2054ZM381.14 93.059H365.664V94.059H381.14V93.059Z" fill="#E5E5E0"/>
<path d="M256.541 93.9125C256.737 93.7172 256.737 93.4007 256.541 93.2054L253.359 90.0234C253.164 89.8282 252.847 89.8282 252.652 90.0234C252.457 90.2187 252.457 90.5353 252.652 90.7305L255.481 93.559L252.652 96.3874C252.457 96.5826 252.457 96.8992 252.652 97.0945C252.847 97.2898 253.164 97.2898 253.359 97.0945L256.541 93.9125ZM241.476 94.059L256.188 94.059L256.188 93.059L241.476 93.059L241.476 94.059Z" fill="#E5E5E0"/>
<path d="M365.474 199.982C365.279 200.177 365.279 200.494 365.474 200.689L368.656 203.871C368.851 204.066 369.168 204.066 369.363 203.871C369.558 203.676 369.558 203.359 369.363 203.164L366.535 200.336L369.363 197.507C369.558 197.312 369.558 196.995 369.363 196.8C369.168 196.605 368.851 196.605 368.656 196.8L365.474 199.982ZM381.308 199.836H365.828V200.836H381.308V199.836Z" fill="#E5E5E0"/>
<path d="M256.997 200.481C257.193 200.286 257.193 199.97 256.997 199.774L253.815 196.592C253.62 196.397 253.304 196.397 253.108 196.592C252.913 196.788 252.913 197.104 253.108 197.3L255.937 200.128L253.108 202.956C252.913 203.152 252.913 203.468 253.108 203.663C253.304 203.859 253.62 203.859 253.815 203.663L256.997 200.481ZM241.164 200.628H256.644V199.628H241.164V200.628Z" fill="#E5E5E0"/>
<path d="M467.277 147.593C467.473 147.398 467.473 147.081 467.277 146.886L464.095 143.704C463.9 143.509 463.584 143.509 463.388 143.704C463.193 143.899 463.193 144.216 463.388 144.411L466.217 147.24L463.388 150.068C463.193 150.263 463.193 150.58 463.388 150.775C463.584 150.97 463.9 150.97 464.095 150.775L467.277 147.593ZM405.158 147.74H466.924V146.74H405.158V147.74Z" fill="white"/>
<path d="M448.546 200.274C448.742 200.078 448.742 199.762 448.546 199.567L445.364 196.385C445.169 196.189 444.853 196.189 444.657 196.385C444.462 196.58 444.462 196.896 444.657 197.092L447.486 199.92L444.657 202.749C444.462 202.944 444.462 203.26 444.657 203.456C444.853 203.651 445.169 203.651 445.364 203.456L448.546 200.274ZM386.427 200.42H448.193V199.42H386.427V200.42Z" fill="#E5E5E0"/>
<path d="M173.146 93.9125C172.951 93.7173 172.951 93.4007 173.146 93.2054L176.328 90.0234C176.523 89.8282 176.84 89.8282 177.035 90.0234C177.23 90.2187 177.23 90.5353 177.035 90.7305L174.207 93.559L177.035 96.3874C177.23 96.5826 177.23 96.8992 177.035 97.0945C176.84 97.2898 176.523 97.2898 176.328 97.0945L173.146 93.9125ZM235.265 94.059H173.499V93.059H235.265V94.059Z" fill="#E5E5E0"/>
<path d="M155.586 147.593C155.39 147.398 155.39 147.081 155.586 146.886L158.768 143.704C158.963 143.509 159.279 143.509 159.475 143.704C159.67 143.899 159.67 144.216 159.475 144.411L156.646 147.24L159.475 150.068C159.67 150.263 159.67 150.58 159.475 150.775C159.279 150.97 158.963 150.97 158.768 150.775L155.586 147.593ZM217.705 147.74H155.939V146.74H217.705V147.74Z" fill="white"/>
<path d="M173.146 200.481C172.951 200.286 172.951 199.97 173.146 199.774L176.328 196.592C176.523 196.397 176.84 196.397 177.035 196.592C177.23 196.788 177.23 197.104 177.035 197.3L174.207 200.128L177.035 202.956C177.23 203.152 177.23 203.468 177.035 203.663C176.84 203.859 176.523 203.859 176.328 203.663L173.146 200.481ZM235.265 200.628H173.499V199.628H235.265V200.628Z" fill="#E5E5E0"/>
<line x1="499.947" y1="53.5596" x2="499.947" y2="249.464" stroke="white"/>
<path d="M512.787 68.3363V39.4512L519.924 32.318V61.2031L512.787 68.3363Z" fill="#051419" stroke="#A9A8A8"/>
<path d="M483.191 38.9062L490.347 31.6113H519.245L512.089 38.9062H483.191Z" fill="#051419" stroke="#B9B9B9"/>
<path d="M512.787 116.768V87.8829L519.924 80.7496V109.635L512.787 116.768Z" fill="#051419" stroke="#A9A8A8"/>
<path d="M483.191 87.3378L490.347 80.043H519.245L512.089 87.3378H483.191Z" fill="#051419" stroke="#B9B9B9"/>
<path d="M512.787 165.2V136.315L519.924 129.181V158.066L512.787 165.2Z" fill="#051419" stroke="#A9A8A8"/>
<path d="M483.191 135.769L490.347 128.475H519.245L512.089 135.769H483.191Z" fill="#051419" stroke="#B9B9B9"/>
<path d="M512.787 213.631V184.746L519.924 177.613V206.498L512.787 213.631Z" fill="#051419" stroke="#A9A8A8"/>
<path d="M483.191 184.201L490.347 176.906H519.245L512.089 184.201H483.191Z" fill="#051419" stroke="#B9B9B9"/>
<path d="M512.787 262.063V233.178L519.924 226.045V254.93L512.787 262.063Z" fill="#051419" stroke="#A9A8A8"/>
<path d="M483.191 232.633L490.347 225.338H519.245L512.089 232.633H483.191Z" fill="#051419" stroke="#B9B9B9"/>
<path fill-rule="evenodd" clip-rule="evenodd" d="M482.069 39.1748H512.368V69.4737H482.069V39.1748ZM482.069 87.6064H512.368V117.905H482.069V87.6064ZM512.368 136.038H482.069V166.337H512.368V136.038ZM482.069 184.47H512.368V214.769H482.069V184.47ZM512.368 232.901H482.069V263.2H512.368V232.901Z" fill="url(#paint9_radial_355_20022)"/>
</g>
<defs>
<filter id="filter0_d_355_20022" x="-1.37259" y="40" width="212.071" height="203.645" filterUnits="userSpaceOnUse" color-interpolation-filters="sRGB">
<feFlood flood-opacity="0" result="BackgroundImageFix"/>
<feColorMatrix in="SourceAlpha" type="matrix" values="0 0 0 0 0 0 0 0 0 0 0 0 0 0 0 0 0 0 127 0" result="hardAlpha"/>
<feOffset dy="1.87259"/>
<feGaussianBlur stdDeviation="0.936297"/>
<feComposite in2="hardAlpha" operator="out"/>
<feColorMatrix type="matrix" values="0 0 0 0 0 0 0 0 0 0 0 0 0 0 0 0 0 0 0.25 0"/>
<feBlend mode="normal" in2="BackgroundImageFix" result="effect1_dropShadow_355_20022"/>
<feBlend mode="normal" in="SourceGraphic" in2="effect1_dropShadow_355_20022" result="shape"/>
</filter>
<filter id="filter1_d_355_20022" x="-1.37259" y="40" width="212.071" height="203.645" filterUnits="userSpaceOnUse" color-interpolation-filters="sRGB">
<feFlood flood-opacity="0" result="BackgroundImageFix"/>
<feColorMatrix in="SourceAlpha" type="matrix" values="0 0 0 0 0 0 0 0 0 0 0 0 0 0 0 0 0 0 127 0" result="hardAlpha"/>
<feOffset dy="1.87259"/>
<feGaussianBlur stdDeviation="0.936297"/>
<feComposite in2="hardAlpha" operator="out"/>
<feColorMatrix type="matrix" values="0 0 0 0 0 0 0 0 0 0 0 0 0 0 0 0 0 0 0.25 0"/>
<feBlend mode="normal" in2="BackgroundImageFix" result="effect1_dropShadow_355_20022"/>
<feBlend mode="normal" in="SourceGraphic" in2="effect1_dropShadow_355_20022" result="shape"/>
</filter>
<linearGradient id="paint0_linear_355_20022" x1="104.663" y1="293.657" x2="104.663" y2="40" gradientUnits="userSpaceOnUse">
<stop stop-color="#051419"/>
<stop offset="1" stop-color="#0D262E"/>
</linearGradient>
<radialGradient id="paint1_radial_355_20022" cx="0" cy="0" r="1" gradientUnits="userSpaceOnUse" gradientTransform="translate(0.0316138 83.6793) rotate(-16.162) scale(257.386 522.988)">
<stop stop-color="#C97E64"/>
<stop offset="0.114583" stop-color="#D8A679"/>
<stop offset="0.333333" stop-color="#97D9D7"/>
<stop offset="1" stop-color="#E99E52"/>
</radialGradient>
<linearGradient id="paint2_linear_355_20022" x1="20.7838" y1="53.3665" x2="20.784" y2="47.0223" gradientUnits="userSpaceOnUse">
<stop stop-color="#78D5E2"/>
<stop offset="0.0926214" stop-color="#88D2CD"/>
<stop offset="0.2402" stop-color="#9DCEB1"/>
<stop offset="0.3254" stop-color="#A5CDA6"/>
<stop offset="0.5032" stop-color="#AEBD9A"/>
<stop offset="0.8469" stop-color="#C6957C"/>
<stop offset="0.9994" stop-color="#D2816D"/>
</linearGradient>
<radialGradient id="paint3_radial_355_20022" cx="0" cy="0" r="1" gradientUnits="userSpaceOnUse" gradientTransform="translate(0.0316138 468.25) rotate(-70.6111) scale(744.666 1772.3)">
<stop stop-color="#C97E64"/>
<stop offset="0.114583" stop-color="#D8A679"/>
<stop offset="0.333333" stop-color="#97D9D7"/>
<stop offset="1" stop-color="#E99E52"/>
</radialGradient>
<linearGradient id="paint4_linear_355_20022" x1="104.663" y1="293.657" x2="104.663" y2="40" gradientUnits="userSpaceOnUse">
<stop stop-color="#051419"/>
<stop offset="1" stop-color="#0D262E"/>
</linearGradient>
<radialGradient id="paint5_radial_355_20022" cx="0" cy="0" r="1" gradientUnits="userSpaceOnUse" gradientTransform="translate(0.0316138 83.6793) rotate(-16.162) scale(257.386 522.988)">
<stop stop-color="#C97E64"/>
<stop offset="0.114583" stop-color="#D8A679"/>
<stop offset="0.333333" stop-color="#97D9D7"/>
<stop offset="1" stop-color="#E99E52"/>
</radialGradient>
<linearGradient id="paint6_linear_355_20022" x1="20.7838" y1="53.3665" x2="20.784" y2="47.0223" gradientUnits="userSpaceOnUse">
<stop stop-color="#78D5E2"/>
<stop offset="0.0926214" stop-color="#88D2CD"/>
<stop offset="0.2402" stop-color="#9DCEB1"/>
<stop offset="0.3254" stop-color="#A5CDA6"/>
<stop offset="0.5032" stop-color="#AEBD9A"/>
<stop offset="0.8469" stop-color="#C6957C"/>
<stop offset="0.9994" stop-color="#D2816D"/>
</linearGradient>
<radialGradient id="paint7_radial_355_20022" cx="0" cy="0" r="1" gradientUnits="userSpaceOnUse" gradientTransform="translate(0.0316138 468.25) rotate(-70.6111) scale(744.666 1772.3)">
<stop stop-color="#C97E64"/>
<stop offset="0.114583" stop-color="#D8A679"/>
<stop offset="0.333333" stop-color="#97D9D7"/>
<stop offset="1" stop-color="#E99E52"/>
</radialGradient>
<linearGradient id="paint8_linear_355_20022" x1="311.328" y1="201.524" x2="311.328" y2="92.4648" gradientUnits="userSpaceOnUse">
<stop stop-color="#78D5E2"/>
<stop offset="0.0926214" stop-color="#88D2CD"/>
<stop offset="0.2402" stop-color="#9DCEB1"/>
<stop offset="0.3254" stop-color="#A5CDA6"/>
<stop offset="0.5032" stop-color="#AEBD9A"/>
<stop offset="0.8469" stop-color="#C6957C"/>
<stop offset="0.9994" stop-color="#D2816D"/>
</linearGradient>
<radialGradient id="paint9_radial_355_20022" cx="0" cy="0" r="1" gradientUnits="userSpaceOnUse" gradientTransform="translate(441.018 254.681) rotate(-65.6182) scale(258.295 196.317)">
<stop stop-color="#78D5E2"/>
<stop offset="0.0926214" stop-color="#88D2CD"/>
<stop offset="0.2402" stop-color="#9DCEB1"/>
<stop offset="0.3254" stop-color="#A5CDA6"/>
<stop offset="0.5032" stop-color="#AEBD9A"/>
<stop offset="0.8469" stop-color="#C6957C"/>
<stop offset="0.9994" stop-color="#D2816D"/>
</radialGradient>
<clipPath id="clip0_355_20022">
<rect width="524.5" height="294" fill="white" transform="translate(0.5)"/>
</clipPath>
<clipPath id="clip1_355_20022">
<rect x="0.5" y="40" width="208.326" height="199.899" fill="white"/>
</clipPath>
<clipPath id="clip2_355_20022">
<rect x="0.5" y="40" width="208.326" height="199.899" fill="white"/>
</clipPath>
</defs>
</svg>
