<svg width="525" height="294" viewBox="0 0 525 294" fill="none" xmlns="http://www.w3.org/2000/svg">
<g clip-path="url(#clip0_660_17743)">
<path d="M389.79 68.336C389.045 68.2878 388.299 68.2443 387.549 68.2153" stroke="#00141B" stroke-width="1.08897" stroke-miterlimit="10"/>
<g clip-path="url(#clip1_660_17743)">
<rect x="0.5" y="40" width="208.326" height="199.899" fill="url(#paint0_linear_660_17743)"/>
<rect x="0.5" y="40" width="208.326" height="199.899" fill="url(#paint1_linear_660_17743)"/>
<rect x="0.734074" y="40.2341" width="207.858" height="19.9205" fill="#DFF1F5"/>
<rect x="0.734074" y="40.2341" width="207.858" height="19.9205" stroke="url(#paint2_radial_660_17743)" stroke-width="0.468148"/>
<path fill-rule="evenodd" clip-rule="evenodd" d="M23.9557 50.1943C23.9557 51.9462 22.5355 53.3665 20.7836 53.3665C19.0317 53.3665 17.6114 51.9462 17.6114 50.1943C17.6114 48.4424 19.0317 47.0222 20.7836 47.0222C22.5355 47.0222 23.9557 48.4424 23.9557 50.1943ZM13.8665 50.1946C13.8665 51.9465 12.4462 53.3667 10.6943 53.3667C8.94242 53.3667 7.52222 51.9465 7.52222 50.1946C7.52222 48.4427 8.94242 47.0225 10.6943 47.0225C12.4462 47.0225 13.8665 48.4427 13.8665 50.1946ZM30.873 53.3665C32.6249 53.3665 34.0451 51.9462 34.0451 50.1943C34.0451 48.4424 32.6249 47.0222 30.873 47.0222C29.1211 47.0222 27.7009 48.4424 27.7009 50.1943C27.7009 51.9462 29.1211 53.3665 30.873 53.3665Z" fill="url(#paint3_linear_660_17743)"/>
</g>
<rect x="0.644756" y="40.1448" width="208.037" height="199.61" stroke="url(#paint4_linear_660_17743)" stroke-width="0.289512"/>
<rect x="0.644756" y="40.1448" width="208.037" height="199.61" stroke="url(#paint5_linear_660_17743)" stroke-width="0.289512"/>
<rect x="0.644756" y="40.1448" width="208.037" height="199.61" stroke="url(#paint6_diamond_660_17743)" stroke-width="0.289512"/>
<rect x="0.644756" y="40.1448" width="208.037" height="199.61" stroke="url(#paint7_radial_660_17743)" stroke-width="0.289512"/>
<circle cx="278.065" cy="147" r="64.1581" fill="#9DB5BD" stroke="#4F5B5E"/>
<circle cx="278.064" cy="147" r="54.5459" fill="url(#paint8_linear_660_17743)"/>
<path d="M265.943 83.3659V68.2113C222.429 68.2113 187.154 103.486 187.154 147C187.154 190.514 222.429 225.788 265.943 225.788V210.64" stroke="#4F5B5E" stroke-dasharray="7.77 7.77"/>
<path d="M290.186 83.3659V68.2113C333.699 68.2113 368.974 103.486 368.974 147C368.974 190.514 333.699 225.788 290.186 225.788V210.64" stroke="#4F5B5E" stroke-dasharray="7.77 7.77"/>
<path d="M368.974 146.999H347.195M347.195 146.999L356.874 134.878M347.195 146.999L356.874 159.121" stroke="#4F5B5E"/>
<path d="M187.155 146.999H208.924M208.924 146.999L199.249 134.878M208.924 146.999L199.249 159.121" stroke="#4F5B5E"/>
<path d="M243.245 140.254C243.245 138.726 243.627 137.402 244.391 136.281C245.155 135.135 246.225 134.244 247.6 133.607C248.975 132.97 250.579 132.652 252.413 132.652C254.068 132.652 255.507 132.945 256.73 133.531C257.978 134.116 258.971 134.957 259.709 136.052C260.448 137.147 260.881 138.458 261.008 139.986H258.22C258.067 138.458 257.481 137.274 256.462 136.434C255.444 135.568 254.081 135.135 252.375 135.135C250.465 135.135 248.924 135.593 247.753 136.51C246.581 137.427 245.995 138.662 245.995 140.216C245.995 141.413 246.352 142.406 247.065 143.195C247.778 143.959 248.848 144.52 250.274 144.876L254.973 146.022C257.112 146.531 258.729 147.397 259.824 148.62C260.919 149.817 261.467 151.345 261.467 153.204C261.467 154.757 261.085 156.12 260.321 157.291C259.557 158.463 258.474 159.367 257.074 160.003C255.673 160.64 254.03 160.958 252.146 160.958C250.388 160.958 248.822 160.666 247.447 160.08C246.097 159.494 245.028 158.654 244.238 157.559C243.474 156.463 243.029 155.177 242.901 153.7H245.728C245.804 155.152 246.428 156.311 247.6 157.177C248.771 158.017 250.287 158.437 252.146 158.437C254.158 158.437 255.749 157.979 256.921 157.062C258.118 156.145 258.716 154.91 258.716 153.357C258.716 152.109 258.36 151.103 257.647 150.339C256.959 149.549 255.877 148.976 254.4 148.62L249.777 147.474C247.638 146.964 246.008 146.111 244.888 144.914C243.793 143.692 243.245 142.138 243.245 140.254ZM274.74 160.5H266.413V133.149H274.664C277.414 133.149 279.821 133.722 281.884 134.868C283.947 136.014 285.551 137.618 286.697 139.681C287.843 141.718 288.416 144.099 288.416 146.824C288.416 149.549 287.843 151.943 286.697 154.006C285.576 156.043 283.985 157.635 281.922 158.781C279.885 159.927 277.491 160.5 274.74 160.5ZM269.163 134.447V159.201L267.902 157.979H274.626C276.867 157.979 278.802 157.52 280.432 156.604C282.062 155.687 283.323 154.401 284.214 152.745C285.131 151.065 285.589 149.091 285.589 146.824C285.589 144.558 285.131 142.584 284.214 140.903C283.323 139.222 282.049 137.936 280.394 137.045C278.764 136.128 276.816 135.67 274.549 135.67H267.902L269.163 134.447ZM312.599 133.149L295.676 154.273V150.186L309.314 133.149H312.599ZM296.135 133.149V160.5H293.384V133.149H296.135ZM301.33 146.71L303.163 144.456L312.752 160.5H309.543L301.33 146.71Z" fill="#F5FDFF"/>
<path d="M415.287 94.9027C415.482 94.7075 415.482 94.3909 415.287 94.1956L412.105 91.0137C411.909 90.8184 411.593 90.8184 411.398 91.0137C411.202 91.2089 411.202 91.5255 411.398 91.7208L414.226 94.5492L411.398 97.3776C411.202 97.5729 411.202 97.8895 411.398 98.0847C411.593 98.28 411.909 98.28 412.105 98.0847L415.287 94.9027ZM353.167 95.0492H414.933V94.0492H353.167V95.0492Z" fill="#4F5B5E"/>
<path d="M434.018 147.583C434.213 147.388 434.213 147.071 434.018 146.876L430.836 143.694C430.64 143.499 430.324 143.499 430.129 143.694C429.933 143.889 429.933 144.206 430.129 144.401L432.957 147.23L430.129 150.058C429.933 150.253 429.933 150.57 430.129 150.765C430.324 150.961 430.64 150.961 430.836 150.765L434.018 147.583ZM371.898 147.73H433.664V146.73H371.898V147.73Z" fill="#4F5B5E"/>
<path d="M415.287 200.264C415.482 200.069 415.482 199.752 415.287 199.557L412.105 196.375C411.909 196.18 411.593 196.18 411.398 196.375C411.202 196.57 411.202 196.887 411.398 197.082L414.226 199.91L411.398 202.739C411.202 202.934 411.202 203.251 411.398 203.446C411.593 203.641 411.909 203.641 412.105 203.446L415.287 200.264ZM353.167 200.41H414.933V199.41H353.167V200.41Z" fill="#4F5B5E"/>
<path d="M139.886 94.9027C139.691 94.7075 139.691 94.3909 139.886 94.1956L143.068 91.0137C143.263 90.8184 143.58 90.8184 143.775 91.0137C143.97 91.2089 143.97 91.5255 143.775 91.7208L140.947 94.5492L143.775 97.3776C143.97 97.5729 143.97 97.8895 143.775 98.0847C143.58 98.28 143.263 98.28 143.068 98.0847L139.886 94.9027ZM202.006 95.0492H140.24V94.0492H202.006V95.0492Z" fill="#4F5B5E"/>
<path d="M122.326 147.583C122.131 147.388 122.131 147.071 122.326 146.876L125.508 143.694C125.703 143.499 126.02 143.499 126.215 143.694C126.41 143.889 126.41 144.206 126.215 144.401L123.386 147.23L126.215 150.058C126.41 150.253 126.41 150.57 126.215 150.765C126.02 150.961 125.703 150.961 125.508 150.765L122.326 147.583ZM184.445 147.73H122.679V146.73H184.445V147.73Z" fill="#4F5B5E"/>
<path d="M139.886 200.264C139.691 200.069 139.691 199.752 139.886 199.557L143.068 196.375C143.263 196.18 143.58 196.18 143.775 196.375C143.97 196.57 143.97 196.887 143.775 197.082L140.947 199.91L143.775 202.739C143.97 202.934 143.97 203.251 143.775 203.446C143.58 203.641 143.263 203.641 143.068 203.446L139.886 200.264ZM202.006 200.41H140.24V199.41H202.006V200.41Z" fill="#4F5B5E"/>
<line x1="463.947" y1="53.5596" x2="463.947" y2="249.464" stroke="#4F5B5E"/>
<path d="M476.787 68.3363V39.4512L483.924 32.318V61.2031L476.787 68.3363Z" fill="#EBF3F5" stroke="#4F5B5E"/>
<path d="M447.191 38.9062L454.347 31.6113H483.245L476.089 38.9062H447.191Z" fill="#EBF3F5" stroke="#4F5B5E"/>
<path d="M476.787 116.768V87.8829L483.924 80.7496V109.635L476.787 116.768Z" fill="#EBF3F5" stroke="#4F5B5E"/>
<path d="M447.191 87.3378L454.347 80.043H483.245L476.089 87.3378H447.191Z" fill="#EBF3F5" stroke="#4F5B5E"/>
<path d="M476.787 165.2V136.315L483.924 129.181V158.066L476.787 165.2Z" fill="#EBF3F5" stroke="#4F5B5E"/>
<path d="M447.191 135.769L454.347 128.475H483.245L476.089 135.769H447.191Z" fill="#EBF3F5" stroke="#4F5B5E"/>
<path d="M476.787 213.631V184.746L483.924 177.613V206.498L476.787 213.631Z" fill="#EBF3F5" stroke="#4F5B5E"/>
<path d="M447.191 184.201L454.347 176.906H483.245L476.089 184.201H447.191Z" fill="#EBF3F5" stroke="#4F5B5E"/>
<path d="M476.787 262.063V233.178L483.924 226.045V254.93L476.787 262.063Z" fill="#EBF3F5" stroke="#4F5B5E"/>
<path d="M447.191 232.633L454.347 225.338H483.245L476.089 232.633H447.191Z" fill="#EBF3F5" stroke="#4F5B5E"/>
<path fill-rule="evenodd" clip-rule="evenodd" d="M446.069 39.1748H476.368V69.4737H446.069V39.1748ZM446.069 87.6064H476.368V117.905H446.069V87.6064ZM476.368 136.038H446.069V166.337H476.368V136.038ZM446.069 184.47H476.368V214.769H446.069V184.47ZM476.368 232.901H446.069V263.2H476.368V232.901Z" fill="url(#paint9_radial_660_17743)"/>
</g>
<defs>
<linearGradient id="paint0_linear_660_17743" x1="104.663" y1="293.657" x2="104.663" y2="40" gradientUnits="userSpaceOnUse">
<stop stop-color="#93A9B0"/>
<stop offset="1" stop-color="#9EB5BD"/>
</linearGradient>
<linearGradient id="paint1_linear_660_17743" x1="104.663" y1="293.657" x2="104.663" y2="40" gradientUnits="userSpaceOnUse">
<stop stop-color="#EBF3F5"/>
<stop offset="1" stop-color="#F5FDFF"/>
</linearGradient>
<radialGradient id="paint2_radial_660_17743" cx="0" cy="0" r="1" gradientUnits="userSpaceOnUse" gradientTransform="translate(0.0316138 83.6793) rotate(-16.162) scale(257.386 522.988)">
<stop stop-color="#C97E64"/>
<stop offset="0.114583" stop-color="#D8A679"/>
<stop offset="0.333333" stop-color="#97D9D7"/>
<stop offset="1" stop-color="#E99E52"/>
</radialGradient>
<linearGradient id="paint3_linear_660_17743" x1="20.7838" y1="53.3665" x2="20.784" y2="47.0223" gradientUnits="userSpaceOnUse">
<stop stop-color="#78D5E2"/>
<stop offset="0.0926214" stop-color="#88D2CD"/>
<stop offset="0.2402" stop-color="#9DCEB1"/>
<stop offset="0.3254" stop-color="#A5CDA6"/>
<stop offset="0.5032" stop-color="#AEBD9A"/>
<stop offset="0.8469" stop-color="#C6957C"/>
<stop offset="0.9994" stop-color="#D2816D"/>
</linearGradient>
<linearGradient id="paint4_linear_660_17743" x1="104.663" y1="293.657" x2="104.663" y2="40" gradientUnits="userSpaceOnUse">
<stop stop-color="#051419"/>
<stop offset="1" stop-color="#0D262E"/>
</linearGradient>
<linearGradient id="paint5_linear_660_17743" x1="104.663" y1="293.657" x2="104.663" y2="40" gradientUnits="userSpaceOnUse">
<stop stop-color="#93A9B0"/>
<stop offset="1" stop-color="#9EB5BD"/>
</linearGradient>
<radialGradient id="paint6_diamond_660_17743" cx="0" cy="0" r="1" gradientUnits="userSpaceOnUse" gradientTransform="translate(-67.5322 280.882) rotate(-63.9961) scale(581.284 837.881)">
<stop stop-color="#00E0FF"/>
<stop offset="0.230814" stop-color="#00FFEE"/>
<stop offset="0.480814" stop-color="#92FF00"/>
<stop offset="0.725814" stop-color="#FF7A00"/>
<stop offset="0.9994" stop-color="#FF0099"/>
</radialGradient>
<radialGradient id="paint7_radial_660_17743" cx="0" cy="0" r="1" gradientUnits="userSpaceOnUse" gradientTransform="translate(0.0316138 468.25) rotate(-70.6111) scale(744.666 1772.3)">
<stop stop-color="#C97E64"/>
<stop offset="0.114583" stop-color="#D8A679"/>
<stop offset="0.333333" stop-color="#97D9D7"/>
<stop offset="1" stop-color="#E99E52"/>
</radialGradient>
<linearGradient id="paint8_linear_660_17743" x1="278.068" y1="201.515" x2="278.068" y2="92.455" gradientUnits="userSpaceOnUse">
<stop stop-color="#78D5E2"/>
<stop offset="0.0926214" stop-color="#88D2CD"/>
<stop offset="0.2402" stop-color="#9DCEB1"/>
<stop offset="0.3254" stop-color="#A5CDA6"/>
<stop offset="0.5032" stop-color="#AEBD9A"/>
<stop offset="0.8469" stop-color="#C6957C"/>
<stop offset="0.9994" stop-color="#D2816D"/>
</linearGradient>
<radialGradient id="paint9_radial_660_17743" cx="0" cy="0" r="1" gradientUnits="userSpaceOnUse" gradientTransform="translate(405.018 254.681) rotate(-65.6182) scale(258.295 196.317)">
<stop stop-color="#78D5E2"/>
<stop offset="0.0926214" stop-color="#88D2CD"/>
<stop offset="0.2402" stop-color="#9DCEB1"/>
<stop offset="0.3254" stop-color="#A5CDA6"/>
<stop offset="0.5032" stop-color="#AEBD9A"/>
<stop offset="0.8469" stop-color="#C6957C"/>
<stop offset="0.9994" stop-color="#D2816D"/>
</radialGradient>
<clipPath id="clip0_660_17743">
<rect width="524.5" height="294" fill="white" transform="translate(0.5)"/>
</clipPath>
<clipPath id="clip1_660_17743">
<rect x="0.5" y="40" width="208.326" height="199.899" fill="white"/>
</clipPath>
</defs>
</svg>
