<svg width="61" height="60" viewBox="0 0 61 60" fill="none" xmlns="http://www.w3.org/2000/svg">
<g id="Typescript Icon" clip-path="url(#clip0_324_17361)">
<path id="Vector" d="M0.5 30V0H60.5V60H0.5" fill="#007ACC"/>
<path id="Vector_2" d="M13.655 30.105V32.55H21.455V54.75H26.99V32.55H34.79V30.15C34.79 28.8 34.79 27.705 34.73 27.675C34.73 27.63 29.975 27.615 24.2 27.615L13.7 27.66V30.12L13.655 30.105ZM48.71 27.6C50.24 27.96 51.41 28.65 52.46 29.745C53.015 30.345 53.84 31.395 53.9 31.665C53.9 31.755 51.305 33.51 49.73 34.485C49.67 34.53 49.43 34.275 49.19 33.885C48.41 32.775 47.615 32.295 46.37 32.205C44.57 32.085 43.37 33.03 43.37 34.605C43.37 35.085 43.46 35.355 43.64 35.745C44.045 36.57 44.795 37.065 47.12 38.085C51.41 39.93 53.27 41.145 54.395 42.885C55.67 44.835 55.955 47.895 55.1 50.19C54.14 52.695 51.8 54.39 48.455 54.945C47.405 55.125 45.005 55.095 43.88 54.9C41.48 54.45 39.185 53.25 37.775 51.705C37.22 51.105 36.155 49.5 36.215 49.395L36.785 49.035L39.035 47.73L40.73 46.74L41.12 47.265C41.615 48.045 42.725 49.095 43.37 49.455C45.32 50.46 47.93 50.325 49.22 49.155C49.775 48.645 50.015 48.105 50.015 47.355C50.015 46.665 49.91 46.35 49.565 45.825C49.085 45.165 48.125 44.625 45.425 43.425C42.32 42.105 41 41.265 39.77 39.975C39.065 39.195 38.42 37.98 38.12 36.975C37.895 36.105 37.82 33.975 38.03 33.12C38.675 30.12 40.94 28.02 44.18 27.42C45.23 27.21 47.705 27.3 48.74 27.57L48.71 27.6Z" fill="white"/>
</g>
<defs>
<clipPath id="clip0_324_17361">
<rect width="60" height="60" fill="white" transform="translate(0.5)"/>
</clipPath>
</defs>
</svg>
