<svg xmlns="http://www.w3.org/2000/svg" id="a" viewBox="0 0 64 64" width="64" height="64" color="currentColor">
  <path d="M49.545 22.033h-5.427c-0.632 0 -1.234 -0.271 -1.652 -0.744l-2.202 -2.487c-0.328 -0.371 -0.8 -0.582 -1.294 -0.582s-0.966 0.212 -1.294 0.582l-1.888 2.134a3.258 3.258 0 0 1 -2.437 1.098H3.643c-0.846 2.412 -1.398 4.959 -1.618 7.601h28.045c0.493 0 0.965 -0.201 1.306 -0.557l2.611 -2.725c0.326 -0.34 0.777 -0.532 1.248 -0.532h0.108c0.495 0 0.966 0.212 1.294 0.584l2.2 2.487c0.419 0.474 1.02 0.744 1.652 0.744h22.892c-0.22 -2.643 -0.772 -5.19 -1.618 -7.601h-12.219Z"/>
  <path d="M18.995 45.618c0.493 0 0.965 -0.201 1.306 -0.557l2.611 -2.725c0.326 -0.34 0.777 -0.532 1.248 -0.532h0.108c0.495 0 0.966 0.212 1.294 0.582l2.2 2.487c0.419 0.474 1.02 0.744 1.652 0.744h31.022c1.162 -2.401 2.013 -4.978 2.52 -7.677H33.18c-0.632 0 -1.234 -0.271 -1.652 -0.744l-2.2 -2.487c-0.328 -0.371 -0.8 -0.582 -1.294 -0.582s-0.966 0.212 -1.294 0.582l-1.888 2.134a3.259 3.259 0 0 1 -2.438 1.098H2.447c0.507 2.7 1.359 5.276 2.52 7.677z"/>
  <path d="M41.004 13.727c0.493 0 0.965 -0.201 1.306 -0.557l2.611 -2.725c0.326 -0.34 0.777 -0.532 1.248 -0.532h0.108c0.495 0 0.966 0.212 1.294 0.584l2.2 2.487c0.419 0.474 1.02 0.744 1.652 0.744h5.9c-5.618 -7.468 -14.554 -12.298 -24.62 -12.298S13.701 6.259 8.083 13.727z"/>
  <path d="M29.155 53.226h-8.068c-0.632 0 -1.234 -0.271 -1.652 -0.744l-2.2 -2.487c-0.328 -0.371 -0.8 -0.582 -1.294 -0.582s-0.966 0.212 -1.294 0.582l-1.888 2.134a3.259 3.259 0 0 1 -2.438 1.098h-0.125c5.62 6.022 13.624 9.792 22.511 9.792s16.89 -3.77 22.511 -9.792H29.155Z"/>
</svg>
