<svg version="1.1" xmlns="http://www.w3.org/2000/svg" viewBox="0 0 243.2377233256126 151.72228074505108" width="486.4754466512252" height="303.44456149010216">
  <!-- svg-source:excalidraw -->
  
  <defs>
    <style class="style-fonts">
      @font-face {
        font-family: "Virgil";
        src: url("https://excalidraw.com/Virgil.woff2");
      }
      @font-face {
        font-family: "Cascadia";
        src: url("https://excalidraw.com/Cascadia.woff2");
      }
      @font-face {
        font-family: "Assistant";
        src: url("https://excalidraw.com/Assistant-Regular.woff2");
      }
    </style>
    
  </defs>
  <rect x="0" y="0" width="243.2377233256126" height="151.72228074505108" fill="#fafafa"></rect><g stroke-linecap="round" transform="translate(10 77.54969550330327) rotate(0 33.71593427645797 31.57889775749561)"><path d="M15.79 0 C22.41 -1.37, 34.37 1.82, 51.64 0 M15.79 0 C27.41 0.25, 41.36 0.38, 51.64 0 M51.64 0 C63.9 0.48, 69.41 6.54, 67.43 15.79 M51.64 0 C63.76 -1.16, 66.89 7.21, 67.43 15.79 M67.43 15.79 C65.94 25.01, 65.28 31.27, 67.43 47.37 M67.43 15.79 C68.02 25.95, 67.96 36.51, 67.43 47.37 M67.43 47.37 C66.78 56.89, 60.25 61.34, 51.64 63.16 M67.43 47.37 C68.31 57.28, 61.81 62.44, 51.64 63.16 M51.64 63.16 C44.05 60.91, 33.93 62.41, 15.79 63.16 M51.64 63.16 C38.52 64.02, 26.47 62.58, 15.79 63.16 M15.79 63.16 C3.42 65.05, -0.71 58.35, 0 47.37 M15.79 63.16 C4.75 61.97, -1.3 59.64, 0 47.37 M0 47.37 C1.37 36.82, 1.46 23.24, 0 15.79 M0 47.37 C-0.38 38.38, 0.44 30.59, 0 15.79 M0 15.79 C0.03 4.95, 5.35 1.7, 15.79 0 M0 15.79 C0.59 5.85, 4.92 -1.23, 15.79 0" stroke="#1e1e1e" stroke-width="2" fill="none"></path></g><g transform="translate(13.771600705869332 102.475037067058) rotate(0 29.556579328120534 7.495693837262138)"><text x="29.55657932812054" y="10.505964482306641" font-family="Virgil, Segoe UI Emoji" font-size="11.993110139619452px" fill="#1e1e1e" text-anchor="middle" style="white-space: pre;" direction="ltr" dominant-baseline="alphabetic">Token #1</text></g><g stroke-linecap="round" transform="translate(75.13217959555061 10) rotate(0 45.00807803057131 18.960191825187906)"><path d="M9.48 0 C29.74 0, 50 0, 80.54 0 M9.48 0 C33.09 0, 56.69 0, 80.54 0 M80.54 0 C86.86 0, 90.02 3.16, 90.02 9.48 M80.54 0 C86.86 0, 90.02 3.16, 90.02 9.48 M90.02 9.48 C90.02 16.16, 90.02 22.85, 90.02 28.44 M90.02 9.48 C90.02 14.92, 90.02 20.36, 90.02 28.44 M90.02 28.44 C90.02 34.76, 86.86 37.92, 80.54 37.92 M90.02 28.44 C90.02 34.76, 86.86 37.92, 80.54 37.92 M80.54 37.92 C53.99 37.92, 27.44 37.92, 9.48 37.92 M80.54 37.92 C66.16 37.92, 51.79 37.92, 9.48 37.92 M9.48 37.92 C3.16 37.92, 0 34.76, 0 28.44 M9.48 37.92 C3.16 37.92, 0 34.76, 0 28.44 M0 28.44 C0 23.08, 0 17.72, 0 9.48 M0 28.44 C0 22.04, 0 15.64, 0 9.48 M0 9.48 C0 3.16, 3.16 0, 9.48 0 M0 9.48 C0 3.16, 3.16 0, 9.48 0" stroke="#1e1e1e" stroke-width="2" fill="none"></path></g><g transform="translate(76.88360827864847 23.22039563838598) rotate(0 43.15203855885295 6.828331159131437)"><text x="43.15203855885294" y="9.5705889526386" font-family="Virgil, Segoe UI Emoji" font-size="10.925329854610274px" fill="#1e1e1e" text-anchor="middle" style="white-space: pre;" direction="ltr" dominant-baseline="alphabetic">Collection</text></g><g stroke-linecap="round" transform="translate(87.39169989003818 78.56448523005986) rotate(0 34.01333043590134 31.57889775749561)"><path d="M15.79 0 C22.5 1.97, 30.03 0.89, 52.24 0 M15.79 0 C25.64 -0.84, 36.87 -0.36, 52.24 0 M52.24 0 C62.32 -1.43, 67.57 6.59, 68.03 15.79 M52.24 0 C64.21 1.89, 66.6 3.27, 68.03 15.79 M68.03 15.79 C67.49 24.32, 68.2 29.64, 68.03 47.37 M68.03 15.79 C69.2 26.66, 68.79 34.87, 68.03 47.37 M68.03 47.37 C66.82 57.69, 63.89 62.88, 52.24 63.16 M68.03 47.37 C66.78 55.93, 63.64 62.79, 52.24 63.16 M52.24 63.16 C42.85 63.34, 30.79 64.64, 15.79 63.16 M52.24 63.16 C42.88 62.96, 32.51 63.23, 15.79 63.16 M15.79 63.16 C3.41 62.32, 0.07 59.13, 0 47.37 M15.79 63.16 C6.19 63.25, 0.72 56.92, 0 47.37 M0 47.37 C-0.18 35.51, -0.15 20.98, 0 15.79 M0 47.37 C0.16 38.34, 0.69 30.11, 0 15.79 M0 15.79 C-1.2 6.36, 3.65 -0.29, 15.79 0 M0 15.79 C0.86 5.54, 6.5 1.4, 15.79 0" stroke="#1e1e1e" stroke-width="2" fill="none"></path></g><g transform="translate(91.83839996526734 103.48767952912556) rotate(0 29.254513588794765 7.495693837262138)"><text x="29.25451358879477" y="10.505964482306641" font-family="Virgil, Segoe UI Emoji" font-size="11.993110139619452px" fill="#1e1e1e" text-anchor="middle" style="white-space: pre;" direction="ltr" dominant-baseline="alphabetic">Token #2</text></g><g stroke-linecap="round" transform="translate(166.24389676927774 77.1797280178688) rotate(0 33.496913278167426 31.57889775749561)"><path d="M15.79 0 C26.24 -1.74, 38.16 -0.84, 51.2 0 M15.79 0 C29.46 -0.72, 42.87 -0.05, 51.2 0 M51.2 0 C61.96 0.81, 67.47 3.74, 66.99 15.79 M51.2 0 C62.23 -0.29, 67.55 6.97, 66.99 15.79 M66.99 15.79 C67.98 23.78, 68.7 33.3, 66.99 47.37 M66.99 15.79 C65.95 25.49, 66.22 35.5, 66.99 47.37 M66.99 47.37 C66.8 58.35, 63.21 62.64, 51.2 63.16 M66.99 47.37 C66.3 58.03, 62.26 64.6, 51.2 63.16 M51.2 63.16 C37.75 64.9, 26.69 63.16, 15.79 63.16 M51.2 63.16 C38.54 62.52, 27.65 64.36, 15.79 63.16 M15.79 63.16 C3.49 64.72, 0.87 56.53, 0 47.37 M15.79 63.16 C4.15 62.5, 2.26 55.61, 0 47.37 M0 47.37 C1.54 40.24, 1.62 34.44, 0 15.79 M0 47.37 C0.56 35.81, -0.76 24.28, 0 15.79 M0 15.79 C-0.97 5.75, 5.43 0.58, 15.79 0 M0 15.79 C-1.36 7.14, 5.67 0.14, 15.79 0" stroke="#1e1e1e" stroke-width="2" fill="none"></path></g><g transform="translate(170.20102049538707 102.1029223169345) rotate(0 29.51325898383402 7.495693837262138)"><text x="29.513258983834" y="10.505964482306641" font-family="Virgil, Segoe UI Emoji" font-size="11.993110139619452px" fill="#1e1e1e" text-anchor="middle" style="white-space: pre;" direction="ltr" dominant-baseline="alphabetic">...</text></g><g stroke-linecap="round"><g transform="translate(44.764032633440195 75.36637816501366) rotate(0 14.684073481055236 -14.496234001492667)"><path d="M0 0 C4.89 -4.83, 24.47 -24.16, 29.37 -28.99 M0 0 C4.89 -4.83, 24.47 -24.16, 29.37 -28.99" stroke="#1e1e1e" stroke-width="2" fill="none"></path></g><g transform="translate(44.764032633440195 75.36637816501366) rotate(0 14.684073481055236 -14.496234001492667)"><path d="M20.53 -10.35 C23.59 -16.8, 26.65 -23.26, 29.37 -28.99 M20.53 -10.35 C22.31 -14.1, 24.09 -17.86, 29.37 -28.99" stroke="#1e1e1e" stroke-width="2" fill="none"></path></g><g transform="translate(44.764032633440195 75.36637816501366) rotate(0 14.684073481055236 -14.496234001492667)"><path d="M10.61 -20.39 C17.1 -23.37, 23.6 -26.35, 29.37 -28.99 M10.61 -20.39 C14.39 -22.12, 18.17 -23.86, 29.37 -28.99" stroke="#1e1e1e" stroke-width="2" fill="none"></path></g></g><mask></mask><g stroke-linecap="round"><g transform="translate(122.32622914821684 77.4270602899561) rotate(0 0.045204955024246374 -12.165563456308234)"><path d="M0 0 C0.02 -4.06, 0.08 -20.28, 0.09 -24.33 M0 0 C0.02 -4.06, 0.08 -20.28, 0.09 -24.33" stroke="#1e1e1e" stroke-width="2" fill="none"></path></g><g transform="translate(122.32622914821684 77.4270602899561) rotate(0 0.045204955024246374 -12.165563456308234)"><path d="M4.21 -12.88 C3.34 -15.29, 2.48 -17.69, 0.09 -24.33 M4.21 -12.88 C3.18 -15.74, 2.15 -18.6, 0.09 -24.33" stroke="#1e1e1e" stroke-width="2" fill="none"></path></g><g transform="translate(122.32622914821684 77.4270602899561) rotate(0 0.045204955024246374 -12.165563456308234)"><path d="M-4.11 -12.91 C-3.23 -15.31, -2.35 -17.71, 0.09 -24.33 M-4.11 -12.91 C-3.06 -15.77, -2.01 -18.62, 0.09 -24.33" stroke="#1e1e1e" stroke-width="2" fill="none"></path></g></g><mask></mask><g stroke-linecap="round"><g transform="translate(199.28942068205936 74.14807127815243) rotate(0 -16.570542512683005 -13.494335952141341)"><path d="M0 0 C-5.52 -4.5, -27.62 -22.49, -33.14 -26.99 M0 0 C-5.52 -4.5, -27.62 -22.49, -33.14 -26.99" stroke="#1e1e1e" stroke-width="2" fill="none"></path></g><g transform="translate(199.28942068205936 74.14807127815243) rotate(0 -16.570542512683005 -13.494335952141341)"><path d="M-12.95 -19.98 C-17.12 -21.42, -21.28 -22.87, -33.14 -26.99 M-12.95 -19.98 C-19.74 -22.33, -26.53 -24.69, -33.14 -26.99" stroke="#1e1e1e" stroke-width="2" fill="none"></path></g><g transform="translate(199.28942068205936 74.14807127815243) rotate(0 -16.570542512683005 -13.494335952141341)"><path d="M-22.19 -8.64 C-24.44 -12.42, -26.7 -16.21, -33.14 -26.99 M-22.19 -8.64 C-25.87 -14.81, -29.55 -20.98, -33.14 -26.99" stroke="#1e1e1e" stroke-width="2" fill="none"></path></g></g><mask></mask></svg>