<?xml version="1.0" encoding="utf-8" standalone="yes"?>
<!DOCTYPE svg PUBLIC "-//W3C//DTD SVG 1.1//EN" "http://www.w3.org/Graphics/SVG/1.1/DTD/svg11.dtd">
<svg width="1046" height="554" viewBox="0 0 1046 554" style="fill:none;stroke:none;fill-rule:evenodd;clip-rule:evenodd;stroke-linecap:round;stroke-linejoin:round;stroke-miterlimit:1.5;" version="1.1" xmlns="http://www.w3.org/2000/svg" xmlns:xlink="http://www.w3.org/1999/xlink"><style class="text-font-style fontImports" data-font-family="Roboto">@import url('https://fonts.googleapis.com/css2?family=Roboto:wght@400;700&amp;display=block');</style><g id="items" style="isolation: isolate"><g id="blend" style="mix-blend-mode: normal"><g id="g-root-2.g-2_fr_18i79u98d9gqw-fill" data-item-order="-454166" transform="translate(519, 99)"></g><g id="g-root-0.g-0_fr_18i79u98d9gqy-fill" data-item-order="-454162" transform="translate(447, 225)"></g><g id="g-root-1.g-1_fr_142drpt8d9hj8-fill" data-item-order="-454158" transform="translate(27, 99)"></g><g id="g-root-tx_chooseth_142drpt8d9hja-fill" data-item-order="0" transform="translate(237, 39)"><g id="tx_chooseth_142drpt8d9hja-fill" stroke="none" fill="#f4f4f4"><g><text style="font: 20px Roboto, sans-serif; white-space: pre;" font-size="20px" font-family="Roboto, sans-serif"><tspan x="15.77" y="33.5" dominant-baseline="ideographic">Choose the multisig implementation that best fits your needs</tspan></text></g></g></g><g id="g-root-lock_v7d8k18d9f67-fill" data-item-order="0" transform="translate(51, 195)"></g><g id="g-root-tx_aptospro_qtf5ox8d9eyr-fill" data-item-order="0" transform="translate(267, 189)"><g id="tx_aptospro_qtf5ox8d9eyr-fill" stroke="none" fill="#4f91fc"><g><text style="font: bold 20px Roboto, sans-serif; white-space: pre;" font-weight="bold" font-size="20px" font-family="Roboto, sans-serif"><tspan x="12" y="33.5" dominant-baseline="ideographic">Aptos Multisig: </tspan><tspan x="12" y="57.5" dominant-baseline="ideographic">Protocol-Level</tspan></text></g></g></g><g id="g-root-eos_1luwqdt8d9hc9-fill" data-item-order="0" transform="translate(783, 195)"></g><g id="g-root-tx_ethereum_hxs5g18d9frh-fill" data-item-order="0" transform="translate(615, 219)"><g id="tx_ethereum_hxs5g18d9frh-fill" stroke="none" fill="#43dd93"><g><text style="font: bold 20px Roboto, sans-serif; white-space: pre;" font-weight="bold" font-size="20px" font-family="Roboto, sans-serif"><tspan x="102.11" y="33.5" dominant-baseline="ideographic">Other </tspan><tspan x="42.63" y="57.5" dominant-baseline="ideographic">Blockchains</tspan></text></g></g></g><g id="g-root-tx_requires_hxs5g18d9frg-fill" data-item-order="0" transform="translate(267, 249)"><g id="tx_requires_hxs5g18d9frg-fill" stroke="none" fill="#4f91fc"><g><text style="font: 15px Roboto, sans-serif; white-space: pre;" font-size="15px" font-family="Roboto, sans-serif"><tspan x="12" y="30.5" dominant-baseline="ideographic">Multisig is </tspan><tspan x="12" y="48.5" dominant-baseline="ideographic">supported natively.</tspan><tspan x="12" y="84.5" dominant-baseline="ideographic">Developers can </tspan><tspan x="12" y="102.5" dominant-baseline="ideographic">interact using the </tspan><tspan x="12" y="120.5" dominant-baseline="ideographic">language of their </tspan><tspan x="12" y="138.5" dominant-baseline="ideographic">choice via our SDK</tspan></text></g></g></g><g id="g-root-tx_deployss_dhynbl8d9gjq-fill" data-item-order="0" transform="translate(603, 279)"><g id="tx_deployss_dhynbl8d9gjq-fill" stroke="none" fill="#43dd93"><g><text style="font: 15px Roboto, sans-serif; white-space: pre;" font-size="15px" font-family="Roboto, sans-serif"><tspan x="22.87" y="27.5" dominant-baseline="ideographic">Require custom code </tspan><tspan x="40.46" y="45.5" dominant-baseline="ideographic">or smart contracts </tspan><tspan x="40.25" y="63.5" dominant-baseline="ideographic">like Gnosis Safe or </tspan><tspan x="71.85" y="81.5" dominant-baseline="ideographic">OpenZeppelin</tspan></text></g></g></g><g id="g-root-2.g-2_fr_18i79u98d9gqw-stroke" data-item-order="-454166" transform="translate(519, 99)"><g id="2.g-2_fr_18i79u98d9gqw-stroke" fill="none" stroke-linecap="round" stroke-linejoin="round" stroke-miterlimit="4" stroke="#43dd93" stroke-width="2"><g><path d="M 490 10L 10 10L 10 124.2273C 50.2747 127.2911 82 160.9406 82 202C 82 243.0594 50.2747 276.7089 10 279.7727L 10 394L 490 394L 490 10Z"></path></g></g></g><g id="g-root-0.g-0_fr_18i79u98d9gqy-stroke" data-item-order="-454162" transform="translate(447, 225)"><g id="0.g-0_fr_18i79u98d9gqy-stroke" fill="none" stroke-linecap="round" stroke-linejoin="round" stroke-miterlimit="4" stroke="#d3d3d3" stroke-width="2"><g><path d="M 76 142C 112.4508 142 142 112.4508 142 76C 142 39.5492 112.4508 10 76 10C 39.5492 10 10 39.5492 10 76C 10 112.4508 39.5492 142 76 142ZM 103.2699 84.8789C 103.5027 85.4801 103.6191 86.159 103.6191 86.9154C 103.6191 87.8658 103.3766 88.7192 102.8917 89.4756C 102.4262 90.2321 101.6989 90.8236 100.7097 91.2503C 99.7399 91.677 98.4986 91.8904 96.9858 91.8904C 95.7444 91.8904 94.6001 91.7643 93.5527 91.5122C 92.5248 91.26 91.6326 90.8527 90.8761 90.2902C 90.1391 89.7278 89.5669 88.9907 89.1596 88.0791C 88.7523 87.1676 88.5487 86.0523 88.5487 84.7334L 79.7915 84.7334C 79.7915 87.1191 80.2861 89.1847 81.2753 90.9303C 82.2645 92.6759 83.5834 94.1112 85.232 95.2361C 86.9 96.3611 88.7523 97.2048 90.7889 97.7673C 92.8254 98.3103 94.891 98.5819 96.9858 98.5819C 99.3132 98.5819 101.4177 98.32 103.299 97.7963C 105.1804 97.2727 106.7999 96.5065 108.1576 95.498C 109.5153 94.4894 110.553 93.2578 111.2706 91.8031C 111.9883 90.3484 112.3471 88.6998 112.3471 86.8572C 112.3471 85.1116 112.0465 83.5503 111.4452 82.1732C 110.8439 80.7961 109.9517 79.5645 108.7686 78.4783C 107.5855 77.3922 106.1114 76.4127 104.3464 75.5399C 102.6008 74.6671 100.5739 73.8816 98.2659 73.1833C 96.8888 72.7566 95.6766 72.3202 94.6292 71.8741C 93.5818 71.428 92.6993 70.9528 91.9817 70.4485C 91.2641 69.9442 90.721 69.4012 90.3525 68.8193C 90.0033 68.2374 89.8288 67.5877 89.8288 66.87C 89.8288 65.9197 90.0809 65.0662 90.5852 64.3098C 91.0895 63.534 91.8459 62.923 92.8545 62.4769C 93.8631 62.0114 95.1238 61.7787 96.6366 61.7787C 98.2077 61.7787 99.5072 62.0502 100.5352 62.5933C 101.5825 63.1364 102.3583 63.8831 102.8626 64.8335C 103.3863 65.7645 103.6482 66.8506 103.6482 68.092L 112.318 68.092C 112.318 65.5705 111.6682 63.3303 110.3687 61.3714C 109.0886 59.4124 107.2848 57.8705 104.9574 56.7455C 102.6299 55.6206 99.9048 55.0581 96.7821 55.0581C 94.4934 55.0581 92.389 55.3393 90.4688 55.9018C 88.5681 56.4643 86.9194 57.2692 85.5229 58.3166C 84.1265 59.3445 83.0403 60.5859 82.2645 62.0405C 81.4887 63.4758 81.1008 65.0759 81.1008 66.8409C 81.1008 68.6641 81.4693 70.2643 82.2063 71.6414C 82.9627 73.0184 83.9907 74.2307 85.2902 75.278C 86.6091 76.306 88.122 77.2079 89.8288 77.9837C 91.555 78.7595 93.3782 79.4578 95.2983 80.0785C 97.0246 80.6215 98.4307 81.1452 99.5169 81.6495C 100.603 82.1538 101.4468 82.6678 102.048 83.1915C 102.6493 83.6957 103.0566 84.2582 103.2699 84.8789ZM 77.6095 55.64L 67.8923 55.64L 58.2921 87.8835L 48.7198 55.64L 39.0608 55.64L 53.7238 98L 62.8592 98L 77.6095 55.64Z"></path></g></g></g><g id="g-root-1.g-1_fr_142drpt8d9hj8-stroke" data-item-order="-454158" transform="translate(27, 99)"><g id="1.g-1_fr_142drpt8d9hj8-stroke" fill="none" stroke-linecap="round" stroke-linejoin="round" stroke-miterlimit="4" stroke="#4f91fc" stroke-width="2"><g><path d="M 490 10L 10 10L 10 394L 490 394L 490 279.7727C 449.7253 276.7089 418 243.0594 418 202C 418 160.9406 449.7253 127.2911 490 124.2273L 490 10Z"></path></g></g></g><g id="g-root-tx_chooseth_142drpt8d9hja-stroke" data-item-order="0" transform="translate(237, 39)"></g><g id="g-root-lock_v7d8k18d9f67-stroke" data-item-order="0" transform="translate(51, 195)"><g id="lock_v7d8k18d9f67-stroke" fill="none" stroke-linecap="round" stroke-linejoin="round" stroke-miterlimit="4" stroke="#4f91fc" stroke-width="2"><g><path d="M 112.103996 151.983994L 31.511999 151.983994C 22.279629 151.975174 14.799995 144.488373 14.8 135.256012L 14.8 30.728001C 14.799995 21.495625 22.279629 14.008831 31.512001 14L 156.951996 14C 166.1875 14.004417 173.672012 21.492504 173.672012 30.728001L 173.671997 81.416M 14.784 46.664001L 173.671997 46.664001M 14.784 116.064003L 112.103996 116.064003M 14.784 81.416L 173.671997 81.416M 79.68 46.664001L 79.68 151.983994M 126.208 46.664001L 126.208 102.823997M 128.688004 150.416C 128.687988 143.846024 134.014008 138.520004 140.584 138.520004L 185.320007 138.520004C 191.883728 138.528824 197.199997 143.852264 197.199997 150.416L 197.199997 186.104004C 197.199997 192.66774 191.883728 197.991165 185.319992 198L 140.584 198C 134.014008 198 128.687988 192.673981 128.687988 186.104004ZM 162.951996 102.800003L 162.951996 102.800003C 150.076645 103.066795 139.853088 113.716476 140.112 126.591995L 140.112 138.496002L 185.792007 138.496002L 185.792007 126.615997C 186.064362 113.731194 175.836914 103.066719 162.951996 102.799995ZM 162.951996 159.927994C 159.437958 159.784317 156.189316 161.790878 154.744553 164.997406C 153.299805 168.203949 153.948975 171.966721 156.384644 174.503784C 158.820328 177.040848 162.553513 177.842865 165.816269 176.529999C 169.079041 175.217148 171.216339 172.052994 171.216003 168.536011C 171.309723 163.877396 167.610519 160.024216 162.951996 159.927994L 162.951996 159.927994"></path></g></g></g><g id="g-root-tx_aptospro_qtf5ox8d9eyr-stroke" data-item-order="0" transform="translate(267, 189)"></g><g id="g-root-eos_1luwqdt8d9hc9-stroke" data-item-order="0" transform="translate(783, 195)"><g id="eos_1luwqdt8d9hc9-stroke" fill="none" stroke-linecap="round" stroke-linejoin="round" stroke-miterlimit="4" stroke="#43dd93" stroke-width="2"><g><path d="M 14 106C 14.000002 156.810196 55.189804 198 106 198C 156.810196 198 198 156.810196 198 106C 198 55.189804 156.810196 14.000002 106 14.000002C 55.189804 14.000002 14.000002 55.189804 14.000002 106M 106 166L 154 134L 134 74L 106 46L 78 74L 58 134L 106 166ZM 78 74L 106 166L 134 74"></path></g></g></g><g id="g-root-tx_ethereum_hxs5g18d9frh-stroke" data-item-order="0" transform="translate(615, 219)"></g><g id="g-root-tx_requires_hxs5g18d9frg-stroke" data-item-order="0" transform="translate(267, 249)"></g><g id="g-root-tx_deployss_dhynbl8d9gjq-stroke" data-item-order="0" transform="translate(603, 279)"></g></g></g></svg>