<svg fill="none" height="64" viewBox="0 0 64 64" width="64" xmlns="http://www.w3.org/2000/svg">
  <g stroke="#292d32" stroke-linecap="round" stroke-linejoin="round" stroke-width="1.5">
    <path d="M47.333 18.8C46.693 18.693 46.027 18.667 45.333 18.667H18.667q-1.12 0 -2.16 0.16c0.373 -0.747 0.907 -1.44 1.547 -2.08l8.667 -8.693a9.4 9.4 0 0 1 13.227 0l4.667 4.72c1.707 1.68 2.613 3.813 2.72 6.027" opacity=".4"/>
    <g stroke-miterlimit="10">
      <path d="M24 50.667c0 2 -0.56 3.893 -1.547 5.493C20.613 59.253 17.227 61.333 13.333 61.333s-7.28 -2.08 -9.12 -5.173A10.4 10.4 0 0 1 2.667 50.667c0 -5.893 4.773 -10.667 10.667 -10.667s10.667 4.773 10.667 10.667"/>
      <path d="M17.307 50.613H9.36"/>
      <path d="M13.333 46.72v7.973"/>
    </g>
    <path d="M58.667 32v13.333c0 8 -5.333 13.333 -13.333 13.333H20.347c0.827 -0.693 1.547 -1.547 2.107 -2.507 0.987 -1.6 1.547 -3.493 1.547 -5.493 0 -5.893 -4.773 -10.667 -10.667 -10.667 -3.2 0 -6.053 1.413 -8 3.627V32c0 -7.253 4.373 -12.32 11.173 -13.173Q17.547 18.667 18.667 18.667h26.667c0.693 0 1.36 0.027 2 0.133C54.213 19.6 58.667 24.693 58.667 32"/>
    <path d="M58.667 33.333h-8c-2.933 0 -5.333 2.4 -5.333 5.333s2.4 5.333 5.333 5.333h8" opacity=".4"/>
  </g>
</svg>
